Output #0, mpeg, to '02.mpg':
    Stream #0:0: Video: mpeg1video, yuv420p, 640x480, q=2-31, 400 kb/s, 25 tbn
[mpeg @ 0x121ccf580] VBV buffer size not set, using default size of 230KB
If you want the mpeg file to be compliant to some specification
Like DVD, VCD or others, make sure you set the correct buffer size
视频编码
pts:0 pts_time:0 dts:-3600 dts_time:-0.04 duration:0 duration_time:0 stream_index:0
pts:3600 pts_time:0.04 dts:0 dts_time:0 duration:0 duration_time:0 stream_index:0
pts:7200 pts_time:0.08 dts:3600 dts_time:0.04 duration:0 duration_time:0 stream_index:0
[mpeg @ 0x121ccf580] buffer underflow st=0 bufi=2336 size=14578
[mpeg @ 0x121ccf580] buffer underflow st=0 bufi=4377 size=14578
[mpeg @ 0x121ccf580] buffer underflow st=0 bufi=6418 size=14578
[mpeg @ 0x121ccf580] buffer underflow st=0 bufi=8459 size=14578
[mpeg @ 0x121ccf580] buffer underflow st=0 bufi=10500 size=14578
[mpeg @ 0x121ccf580] buffer underflow st=0 bufi=12541 size=14578
pts:10800 pts_time:0.12 dts:7200 dts_time:0.08 duration:0 duration_time:0 stream_index:0
[mpeg @ 0x121ccf580] buffer underflow st=0 bufi=4 size=2041
pts:14400 pts_time:0.16 dts:10800 dts_time:0.12 duration:0 duration_time:0 stream_index:0
[mpeg @ 0x121ccf580] buffer underflow st=0 bufi=4 size=1773
pts:18000 pts_time:0.2 dts:14400 dts_time:0.16 duration:0 duration_time:0 stream_index:0
[mpeg @ 0x121ccf580] buffer underflow st=0 bufi=263 size=2053
pts:21600 pts_time:0.24 dts:18000 dts_time:0.2 duration:0 duration_time:0 stream_index:0
[mpeg @ 0x121ccf580] buffer underflow st=0 bufi=242 size=1779
pts:25200 pts_time:0.28 dts:21600 dts_time:0.24 duration:0 duration_time:0 stream_index:0
[mpeg @ 0x121ccf580] buffer underflow st=0 bufi=495 size=1651
pts:28800 pts_time:0.32 dts:25200 dts_time:0.28 duration:0 duration_time:0 stream_index:0
pts:32400 pts_time:0.36 dts:28800 dts_time:0.32 duration:0 duration_time:0 stream_index:0
[mpeg @ 0x121ccf580] buffer underflow st=0 bufi=197 size=885
pts:36000 pts_time:0.4 dts:32400 dts_time:0.36 duration:0 duration_time:0 stream_index:0
pts:39600 pts_time:0.44 dts:36000 dts_time:0.4 duration:0 duration_time:0 stream_index:0
[mpeg @ 0x121ccf580] buffer underflow st=0 bufi=99 size=473
pts:43200 pts_time:0.48 dts:39600 dts_time:0.44 duration:0 duration_time:0 stream_index:0
[mpeg @ 0x121ccf580] buffer underflow st=0 bufi=1658 size=20930
[mpeg @ 0x121ccf580] buffer underflow st=0 bufi=3699 size=20930
[mpeg @ 0x121ccf580] buffer underflow st=0 bufi=5740 size=20930
[mpeg @ 0x121ccf580] buffer underflow st=0 bufi=7781 size=20930
[mpeg @ 0x121ccf580] buffer underflow st=0 bufi=9822 size=20930
[mpeg @ 0x121ccf580] buffer underflow st=0 bufi=11863 size=20930
[mpeg @ 0x121ccf580] buffer underflow st=0 bufi=13904 size=20930
[mpeg @ 0x121ccf580] buffer underflow st=0 bufi=15945 size=20930
[mpeg @ 0x121ccf580] buffer underflow st=0 bufi=17986 size=20930
[mpeg @ 0x121ccf580] buffer underflow st=0 bufi=20027 size=20930
pts:46800 pts_time:0.52 dts:43200 dts_time:0.48 duration:0 duration_time:0 stream_index:0
[mpeg @ 0x121ccf580] buffer underflow st=0 bufi=1129 size=2414
pts:50400 pts_time:0.56 dts:46800 dts_time:0.52 duration:0 duration_time:0 stream_index:0
[mpeg @ 0x121ccf580] buffer underflow st=0 bufi=747 size=14769
[mpeg @ 0x121ccf580] buffer underflow st=0 bufi=2788 size=14769
[mpeg @ 0x121ccf580] buffer underflow st=0 bufi=4829 size=14769
[mpeg @ 0x121ccf580] buffer underflow st=0 bufi=6870 size=14769
[mpeg @ 0x121ccf580] buffer underflow st=0 bufi=8911 size=14769
[mpeg @ 0x121ccf580] buffer underflow st=0 bufi=10952 size=14769
[mpeg @ 0x121ccf580] buffer underflow st=0 bufi=12993 size=14769
pts:54000 pts_time:0.6 dts:50400 dts_time:0.56 duration:0 duration_time:0 stream_index:0
[mpeg @ 0x121ccf580] buffer underflow st=0 bufi=256 size=2521
[mpeg @ 0x121ccf580] buffer underflow st=0 bufi=2297 size=2521
pts:57600 pts_time:0.64 dts:54000 dts_time:0.6 duration:0 duration_time:0 stream_index:0
[mpeg @ 0x121ccf580] buffer underflow st=0 bufi=1808 size=6826
[mpeg @ 0x121ccf580] buffer underflow st=0 bufi=3849 size=6826
[mpeg @ 0x121ccf580] buffer underflow st=0 bufi=5890 size=6826
pts:61200 pts_time:0.68 dts:57600 dts_time:0.64 duration:0 duration_time:0 stream_index:0
[mpeg @ 0x121ccf580] buffer underflow st=0 bufi=1084 size=2008
pts:64800 pts_time:0.72 dts:61200 dts_time:0.68 duration:0 duration_time:0 stream_index:0
[mpeg @ 0x121ccf580] buffer underflow st=0 bufi=1108 size=9911
[mpeg @ 0x121ccf580] buffer underflow st=0 bufi=3149 size=9911
[mpeg @ 0x121ccf580] buffer underflow st=0 bufi=5190 size=9911
[mpeg @ 0x121ccf580] buffer underflow st=0 bufi=7231 size=9911
[mpeg @ 0x121ccf580] buffer underflow st=0 bufi=9272 size=9911
pts:68400 pts_time:0.76 dts:64800 dts_time:0.72 duration:0 duration_time:0 stream_index:0
pts:72000 pts_time:0.8 dts:68400 dts_time:0.76 duration:0 duration_time:0 stream_index:0
[mpeg @ 0x121ccf580] buffer underflow st=0 bufi=51 size=8743
[mpeg @ 0x121ccf580] buffer underflow st=0 bufi=2092 size=8743
[mpeg @ 0x121ccf580] buffer underflow st=0 bufi=4133 size=8743
[mpeg @ 0x121ccf580] buffer underflow st=0 bufi=6174 size=8743
[mpeg @ 0x121ccf580] buffer underflow st=0 bufi=8215 size=8743
pts:75600 pts_time:0.84 dts:72000 dts_time:0.8 duration:0 duration_time:0 stream_index:0
pts:79200 pts_time:0.88 dts:75600 dts_time:0.84 duration:0 duration_time:0 stream_index:0
[mpeg @ 0x121ccf580] buffer underflow st=0 bufi=1033 size=6593
[mpeg @ 0x121ccf580] buffer underflow st=0 bufi=3074 size=6593
[mpeg @ 0x121ccf580] buffer underflow st=0 bufi=5115 size=6593
pts:82800 pts_time:0.92 dts:79200 dts_time:0.88 duration:0 duration_time:0 stream_index:0
pts:86400 pts_time:0.96 dts:82800 dts_time:0.92 duration:0 duration_time:0 stream_index:0
[mpeg @ 0x121ccf580] buffer underflow st=0 bufi=23 size=13660
[mpeg @ 0x121ccf580] buffer underflow st=0 bufi=2064 size=13660
[mpeg @ 0x121ccf580] buffer underflow st=0 bufi=4105 size=13660
[mpeg @ 0x121ccf580] buffer underflow st=0 bufi=6146 size=13660
[mpeg @ 0x121ccf580] buffer underflow st=0 bufi=8187 size=13660
[mpeg @ 0x121ccf580] buffer underflow st=0 bufi=10228 size=13660
[mpeg @ 0x121ccf580] buffer underflow st=0 bufi=12269 size=13660
pts:90000 pts_time:1 dts:86400 dts_time:0.96 duration:0 duration_time:0 stream_index:0
pts:93600 pts_time:1.04 dts:90000 dts_time:1 duration:0 duration_time:0 stream_index:0
[mpeg @ 0x121ccf580] buffer underflow st=0 bufi=342 size=7188
[mpeg @ 0x121ccf580] buffer underflow st=0 bufi=2383 size=7188
[mpeg @ 0x121ccf580] buffer underflow st=0 bufi=4424 size=7188
[mpeg @ 0x121ccf580] buffer underflow st=0 bufi=6465 size=7188
pts:97200 pts_time:1.08 dts:93600 dts_time:1.04 duration:0 duration_time:0 stream_index:0
pts:100800 pts_time:1.12 dts:97200 dts_time:1.08 duration:0 duration_time:0 stream_index:0
[mpeg @ 0x121ccf580] buffer underflow st=0 bufi=854 size=6778
[mpeg @ 0x121ccf580] buffer underflow st=0 bufi=2895 size=6778
[mpeg @ 0x121ccf580] buffer underflow st=0 bufi=4936 size=6778
pts:104400 pts_time:1.16 dts:100800 dts_time:1.12 duration:0 duration_time:0 stream_index:0
[mpeg @ 0x121ccf580] buffer underflow st=0 bufi=190 size=1156
pts:108000 pts_time:1.2 dts:104400 dts_time:1.16 duration:0 duration_time:0 stream_index:0
[mpeg @ 0x121ccf580] buffer underflow st=0 bufi=1066 size=4556
[mpeg @ 0x121ccf580] buffer underflow st=0 bufi=3107 size=4556
pts:111600 pts_time:1.24 dts:108000 dts_time:1.2 duration:0 duration_time:0 stream_index:0
pts:115200 pts_time:1.28 dts:111600 dts_time:1.24 duration:0 duration_time:0 stream_index:0
[mpeg @ 0x121ccf580] buffer underflow st=0 bufi=239 size=4818
[mpeg @ 0x121ccf580] buffer underflow st=0 bufi=2280 size=4818
[mpeg @ 0x121ccf580] buffer underflow st=0 bufi=4321 size=4818
pts:118800 pts_time:1.32 dts:115200 dts_time:1.28 duration:0 duration_time:0 stream_index:0
pts:122400 pts_time:1.36 dts:118800 dts_time:1.32 duration:0 duration_time:0 stream_index:0
[mpeg @ 0x121ccf580] buffer underflow st=0 bufi=1182 size=4938
[mpeg @ 0x121ccf580] buffer underflow st=0 bufi=3223 size=4938
pts:126000 pts_time:1.4 dts:122400 dts_time:1.36 duration:0 duration_time:0 stream_index:0
[mpeg @ 0x121ccf580] buffer underflow st=0 bufi=317 size=350
pts:129600 pts_time:1.44 dts:126000 dts_time:1.4 duration:0 duration_time:0 stream_index:0
[mpeg @ 0x121ccf580] buffer underflow st=0 bufi=1999 size=11729
[mpeg @ 0x121ccf580] buffer underflow st=0 bufi=4040 size=11729
[mpeg @ 0x121ccf580] buffer underflow st=0 bufi=6081 size=11729
[mpeg @ 0x121ccf580] buffer underflow st=0 bufi=8122 size=11729
[mpeg @ 0x121ccf580] buffer underflow st=0 bufi=10163 size=11729
pts:133200 pts_time:1.48 dts:129600 dts_time:1.44 duration:0 duration_time:0 stream_index:0
pts:136800 pts_time:1.52 dts:133200 dts_time:1.48 duration:0 duration_time:0 stream_index:0
[mpeg @ 0x121ccf580] buffer underflow st=0 bufi=144 size=3401
[mpeg @ 0x121ccf580] buffer underflow st=0 bufi=2185 size=3401
pts:140400 pts_time:1.56 dts:136800 dts_time:1.52 duration:0 duration_time:0 stream_index:0
pts:144000 pts_time:1.6 dts:140400 dts_time:1.56 duration:0 duration_time:0 stream_index:0
[mpeg @ 0x121ccf580] buffer underflow st=0 bufi=434 size=1479
pts:147600 pts_time:1.64 dts:144000 dts_time:1.6 duration:0 duration_time:0 stream_index:0
pts:151200 pts_time:1.68 dts:147600 dts_time:1.64 duration:0 duration_time:0 stream_index:0
[mpeg @ 0x121ccf580] buffer underflow st=0 bufi=318 size=1808
pts:154800 pts_time:1.72 dts:151200 dts_time:1.68 duration:0 duration_time:0 stream_index:0
[mpeg @ 0x121ccf580] buffer underflow st=0 bufi=542 size=1166
pts:158400 pts_time:1.76 dts:154800 dts_time:1.72 duration:0 duration_time:0 stream_index:0
[mpeg @ 0x121ccf580] buffer underflow st=0 bufi=1408 size=5559
[mpeg @ 0x121ccf580] buffer underflow st=0 bufi=3449 size=5559
[mpeg @ 0x121ccf580] buffer underflow st=0 bufi=5490 size=5559
pts:162000 pts_time:1.8 dts:158400 dts_time:1.76 duration:0 duration_time:0 stream_index:0
pts:165600 pts_time:1.84 dts:162000 dts_time:1.8 duration:0 duration_time:0 stream_index:0
[mpeg @ 0x121ccf580] buffer underflow st=0 bufi=1522 size=1699
pts:169200 pts_time:1.88 dts:165600 dts_time:1.84 duration:0 duration_time:0 stream_index:0
pts:172800 pts_time:1.92 dts:169200 dts_time:1.88 duration:0 duration_time:0 stream_index:0
[mpeg @ 0x121ccf580] buffer underflow st=0 bufi=1590 size=15021
[mpeg @ 0x121ccf580] buffer underflow st=0 bufi=3619 size=15021
[mpeg @ 0x121ccf580] buffer underflow st=0 bufi=5660 size=15021
[mpeg @ 0x121ccf580] buffer underflow st=0 bufi=7701 size=15021
[mpeg @ 0x121ccf580] buffer underflow st=0 bufi=9742 size=15021
[mpeg @ 0x121ccf580] buffer underflow st=0 bufi=11783 size=15021
[mpeg @ 0x121ccf580] buffer underflow st=0 bufi=13824 size=15021
pts:176400 pts_time:1.96 dts:172800 dts_time:1.92 duration:0 duration_time:0 stream_index:0
pts:180000 pts_time:2 dts:176400 dts_time:1.96 duration:0 duration_time:0 stream_index:0
[mpeg @ 0x121ccf580] buffer underflow st=0 bufi=383 size=1424
pts:183600 pts_time:2.04 dts:180000 dts_time:2 duration:0 duration_time:0 stream_index:0
pts:187200 pts_time:2.08 dts:183600 dts_time:2.04 duration:0 duration_time:0 stream_index:0
[mpeg @ 0x121ccf580] buffer underflow st=0 bufi=409 size=4184
[mpeg @ 0x121ccf580] buffer underflow st=0 bufi=2450 size=4184
pts:190800 pts_time:2.12 dts:187200 dts_time:2.08 duration:0 duration_time:0 stream_index:0
[mpeg @ 0x121ccf580] buffer underflow st=0 bufi=298 size=557
pts:194400 pts_time:2.16 dts:190800 dts_time:2.12 duration:0 duration_time:0 stream_index:0
pts:198000 pts_time:2.2 dts:194400 dts_time:2.16 duration:0 duration_time:0 stream_index:0
pts:201600 pts_time:2.24 dts:198000 dts_time:2.2 duration:0 duration_time:0 stream_index:0
[mpeg @ 0x121ccf580] buffer underflow st=0 bufi=228 size=594
pts:205200 pts_time:2.28 dts:201600 dts_time:2.24 duration:0 duration_time:0 stream_index:0
pts:208800 pts_time:2.32 dts:205200 dts_time:2.28 duration:0 duration_time:0 stream_index:0
[mpeg @ 0x121ccf580] buffer underflow st=0 bufi=446 size=835
pts:212400 pts_time:2.36 dts:208800 dts_time:2.32 duration:0 duration_time:0 stream_index:0
pts:216000 pts_time:2.4 dts:212400 dts_time:2.36 duration:0 duration_time:0 stream_index:0
[mpeg @ 0x121ccf580] buffer underflow st=0 bufi=1030 size=20051
[mpeg @ 0x121ccf580] buffer underflow st=0 bufi=3071 size=20051
[mpeg @ 0x121ccf580] buffer underflow st=0 bufi=5112 size=20051
[mpeg @ 0x121ccf580] buffer underflow st=0 bufi=7153 size=20051
[mpeg @ 0x121ccf580] buffer underflow st=0 bufi=9194 size=20051
[mpeg @ 0x121ccf580] buffer underflow st=0 bufi=11235 size=20051
[mpeg @ 0x121ccf580] buffer underflow st=0 bufi=13276 size=20051
[mpeg @ 0x121ccf580] buffer underflow st=0 bufi=15317 size=20051
[mpeg @ 0x121ccf580] buffer underflow st=0 bufi=17358 size=20051
[mpeg @ 0x121ccf580] buffer underflow st=0 bufi=19399 size=20051
pts:219600 pts_time:2.44 dts:216000 dts_time:2.4 duration:0 duration_time:0 stream_index:0
pts:223200 pts_time:2.48 dts:219600 dts_time:2.44 duration:0 duration_time:0 stream_index:0
[mpeg @ 0x121ccf580] buffer underflow st=0 bufi=445 size=2906
[mpeg @ 0x121ccf580] buffer underflow st=0 bufi=2486 size=2906
pts:226800 pts_time:2.52 dts:223200 dts_time:2.48 duration:0 duration_time:0 stream_index:0
pts:230400 pts_time:2.56 dts:226800 dts_time:2.52 duration:0 duration_time:0 stream_index:0
pts:234000 pts_time:2.6 dts:230400 dts_time:2.56 duration:0 duration_time:0 stream_index:0
[mpeg @ 0x121ccf580] buffer underflow st=0 bufi=692 size=1100
pts:237600 pts_time:2.64 dts:234000 dts_time:2.6 duration:0 duration_time:0 stream_index:0
pts:241200 pts_time:2.68 dts:237600 dts_time:2.64 duration:0 duration_time:0 stream_index:0
pts:244800 pts_time:2.72 dts:241200 dts_time:2.68 duration:0 duration_time:0 stream_index:0
[mpeg @ 0x121ccf580] buffer underflow st=0 bufi=437 size=1229
pts:248400 pts_time:2.76 dts:244800 dts_time:2.72 duration:0 duration_time:0 stream_index:0
pts:252000 pts_time:2.8 dts:248400 dts_time:2.76 duration:0 duration_time:0 stream_index:0
[mpeg @ 0x121ccf580] buffer underflow st=0 bufi=387 size=463
pts:255600 pts_time:2.84 dts:252000 dts_time:2.8 duration:0 duration_time:0 stream_index:0
pts:259200 pts_time:2.88 dts:255600 dts_time:2.84 duration:0 duration_time:0 stream_index:0
[mpeg @ 0x121ccf580] buffer underflow st=0 bufi=1483 size=19730
[mpeg @ 0x121ccf580] buffer underflow st=0 bufi=3524 size=19730
[mpeg @ 0x121ccf580] buffer underflow st=0 bufi=5565 size=19730
[mpeg @ 0x121ccf580] buffer underflow st=0 bufi=7606 size=19730
[mpeg @ 0x121ccf580] buffer underflow st=0 bufi=9647 size=19730
[mpeg @ 0x121ccf580] buffer underflow st=0 bufi=11688 size=19730
[mpeg @ 0x121ccf580] buffer underflow st=0 bufi=13729 size=19730
[mpeg @ 0x121ccf580] buffer underflow st=0 bufi=15770 size=19730
[mpeg @ 0x121ccf580] buffer underflow st=0 bufi=17811 size=19730
pts:262800 pts_time:2.92 dts:259200 dts_time:2.88 duration:0 duration_time:0 stream_index:0
[mpeg @ 0x121ccf580] buffer underflow st=0 bufi=113 size=1989
pts:266400 pts_time:2.96 dts:262800 dts_time:2.92 duration:0 duration_time:0 stream_index:0
[mpeg @ 0x121ccf580] buffer underflow st=0 bufi=156 size=565
pts:270000 pts_time:3 dts:266400 dts_time:2.96 duration:0 duration_time:0 stream_index:0
pts:273600 pts_time:3.04 dts:270000 dts_time:3 duration:0 duration_time:0 stream_index:0
pts:277200 pts_time:3.08 dts:273600 dts_time:3.04 duration:0 duration_time:0 stream_index:0
[mpeg @ 0x121ccf580] buffer underflow st=0 bufi=488 size=1895
pts:280800 pts_time:3.12 dts:277200 dts_time:3.08 duration:0 duration_time:0 stream_index:0
pts:284400 pts_time:3.16 dts:280800 dts_time:3.12 duration:0 duration_time:0 stream_index:0
pts:288000 pts_time:3.2 dts:284400 dts_time:3.16 duration:0 duration_time:0 stream_index:0
[mpeg @ 0x121ccf580] buffer underflow st=0 bufi=172 size=1423
pts:291600 pts_time:3.24 dts:288000 dts_time:3.2 duration:0 duration_time:0 stream_index:0
pts:295200 pts_time:3.28 dts:291600 dts_time:3.24 duration:0 duration_time:0 stream_index:0
[mpeg @ 0x121ccf580] buffer underflow st=0 bufi=567 size=4744
[mpeg @ 0x121ccf580] buffer underflow st=0 bufi=2608 size=4744
[mpeg @ 0x121ccf580] buffer underflow st=0 bufi=4649 size=4744
pts:298800 pts_time:3.32 dts:295200 dts_time:3.28 duration:0 duration_time:0 stream_index:0
pts:302400 pts_time:3.36 dts:298800 dts_time:3.32 duration:0 duration_time:0 stream_index:0
[mpeg @ 0x121ccf580] buffer underflow st=0 bufi=1038 size=17430
[mpeg @ 0x121ccf580] buffer underflow st=0 bufi=3079 size=17430
[mpeg @ 0x121ccf580] buffer underflow st=0 bufi=5120 size=17430
[mpeg @ 0x121ccf580] buffer underflow st=0 bufi=7161 size=17430
[mpeg @ 0x121ccf580] buffer underflow st=0 bufi=9202 size=17430
[mpeg @ 0x121ccf580] buffer underflow st=0 bufi=11243 size=17430
[mpeg @ 0x121ccf580] buffer underflow st=0 bufi=13284 size=17430
[mpeg @ 0x121ccf580] buffer underflow st=0 bufi=15325 size=17430
[mpeg @ 0x121ccf580] buffer underflow st=0 bufi=17366 size=17430
pts:306000 pts_time:3.4 dts:302400 dts_time:3.36 duration:0 duration_time:0 stream_index:0
pts:309600 pts_time:3.44 dts:306000 dts_time:3.4 duration:0 duration_time:0 stream_index:0
pts:313200 pts_time:3.48 dts:309600 dts_time:3.44 duration:0 duration_time:0 stream_index:0
[mpeg @ 0x121ccf580] buffer underflow st=0 bufi=86 size=458
pts:316800 pts_time:3.52 dts:313200 dts_time:3.48 duration:0 duration_time:0 stream_index:0
pts:320400 pts_time:3.56 dts:316800 dts_time:3.52 duration:0 duration_time:0 stream_index:0
[mpeg @ 0x121ccf580] buffer underflow st=0 bufi=172 size=948
pts:324000 pts_time:3.6 dts:320400 dts_time:3.56 duration:0 duration_time:0 stream_index:0
pts:327600 pts_time:3.64 dts:324000 dts_time:3.6 duration:0 duration_time:0 stream_index:0
pts:331200 pts_time:3.68 dts:327600 dts_time:3.64 duration:0 duration_time:0 stream_index:0
[mpeg @ 0x121ccf580] buffer underflow st=0 bufi=99 size=5257
[mpeg @ 0x121ccf580] buffer underflow st=0 bufi=2140 size=5257
[mpeg @ 0x121ccf580] buffer underflow st=0 bufi=4181 size=5257
pts:334800 pts_time:3.72 dts:331200 dts_time:3.68 duration:0 duration_time:0 stream_index:0
pts:338400 pts_time:3.76 dts:334800 dts_time:3.72 duration:0 duration_time:0 stream_index:0
[mpeg @ 0x121ccf580] buffer underflow st=0 bufi=295 size=816
pts:342000 pts_time:3.8 dts:338400 dts_time:3.76 duration:0 duration_time:0 stream_index:0
pts:345600 pts_time:3.84 dts:342000 dts_time:3.8 duration:0 duration_time:0 stream_index:0
[mpeg @ 0x121ccf580] buffer underflow st=0 bufi=1115 size=20215
[mpeg @ 0x121ccf580] buffer underflow st=0 bufi=3156 size=20215
[mpeg @ 0x121ccf580] buffer underflow st=0 bufi=5197 size=20215
[mpeg @ 0x121ccf580] buffer underflow st=0 bufi=7238 size=20215
[mpeg @ 0x121ccf580] buffer underflow st=0 bufi=9279 size=20215
[mpeg @ 0x121ccf580] buffer underflow st=0 bufi=11320 size=20215
[mpeg @ 0x121ccf580] buffer underflow st=0 bufi=13361 size=20215
[mpeg @ 0x121ccf580] buffer underflow st=0 bufi=15402 size=20215
[mpeg @ 0x121ccf580] buffer underflow st=0 bufi=17443 size=20215
[mpeg @ 0x121ccf580] buffer underflow st=0 bufi=19484 size=20215
pts:349200 pts_time:3.88 dts:345600 dts_time:3.84 duration:0 duration_time:0 stream_index:0
[mpeg @ 0x121ccf580] buffer underflow st=0 bufi=1301 size=1528
pts:352800 pts_time:3.92 dts:349200 dts_time:3.88 duration:0 duration_time:0 stream_index:0
pts:356400 pts_time:3.96 dts:352800 dts_time:3.92 duration:0 duration_time:0 stream_index:0
pts:360000 pts_time:4 dts:356400 dts_time:3.96 duration:0 duration_time:0 stream_index:0
[mpeg @ 0x121ccf580] buffer underflow st=0 bufi=1220 size=29741
[mpeg @ 0x121ccf580] buffer underflow st=0 bufi=3261 size=29741
[mpeg @ 0x121ccf580] buffer underflow st=0 bufi=5302 size=29741
[mpeg @ 0x121ccf580] buffer underflow st=0 bufi=7343 size=29741
[mpeg @ 0x121ccf580] buffer underflow st=0 bufi=9384 size=29741
[mpeg @ 0x121ccf580] buffer underflow st=0 bufi=11425 size=29741
[mpeg @ 0x121ccf580] buffer underflow st=0 bufi=13466 size=29741
[mpeg @ 0x121ccf580] buffer underflow st=0 bufi=15507 size=29741
[mpeg @ 0x121ccf580] buffer underflow st=0 bufi=17548 size=29741
[mpeg @ 0x121ccf580] buffer underflow st=0 bufi=19589 size=29741
[mpeg @ 0x121ccf580] buffer underflow st=0 bufi=21630 size=29741
[mpeg @ 0x121ccf580] buffer underflow st=0 bufi=23671 size=29741
[mpeg @ 0x121ccf580] buffer underflow st=0 bufi=25712 size=29741
[mpeg @ 0x121ccf580] buffer underflow st=0 bufi=27753 size=29741
pts:363600 pts_time:4.04 dts:360000 dts_time:4 duration:0 duration_time:0 stream_index:0
[mpeg @ 0x121ccf580] buffer underflow st=0 bufi=44 size=4991
[mpeg @ 0x121ccf580] buffer underflow st=0 bufi=2085 size=4991
[mpeg @ 0x121ccf580] buffer underflow st=0 bufi=4126 size=4991
pts:367200 pts_time:4.08 dts:363600 dts_time:4.04 duration:0 duration_time:0 stream_index:0
[mpeg @ 0x121ccf580] buffer underflow st=0 bufi=1167 size=5913
[mpeg @ 0x121ccf580] buffer underflow st=0 bufi=3208 size=5913
[mpeg @ 0x121ccf580] buffer underflow st=0 bufi=5249 size=5913
pts:370800 pts_time:4.12 dts:367200 dts_time:4.08 duration:0 duration_time:0 stream_index:0
[mpeg @ 0x121ccf580] buffer underflow st=0 bufi=1368 size=3656
[mpeg @ 0x121ccf580] buffer underflow st=0 bufi=3409 size=3656
pts:374400 pts_time:4.16 dts:370800 dts_time:4.12 duration:0 duration_time:0 stream_index:0
[mpeg @ 0x121ccf580] buffer underflow st=0 bufi=1785 size=3679
pts:378000 pts_time:4.2 dts:374400 dts_time:4.16 duration:0 duration_time:0 stream_index:0
[mpeg @ 0x121ccf580] buffer underflow st=0 bufi=138 size=4109
[mpeg @ 0x121ccf580] buffer underflow st=0 bufi=2179 size=4109
pts:381600 pts_time:4.24 dts:378000 dts_time:4.2 duration:0 duration_time:0 stream_index:0
[mpeg @ 0x121ccf580] buffer underflow st=0 bufi=102 size=2188
[mpeg @ 0x121ccf580] buffer underflow st=0 bufi=2143 size=2188
pts:385200 pts_time:4.28 dts:381600 dts_time:4.24 duration:0 duration_time:0 stream_index:0
[mpeg @ 0x121ccf580] buffer underflow st=0 bufi=1987 size=4690
[mpeg @ 0x121ccf580] buffer underflow st=0 bufi=4028 size=4690
pts:388800 pts_time:4.32 dts:385200 dts_time:4.28 duration:0 duration_time:0 stream_index:0
[mpeg @ 0x121ccf580] buffer underflow st=0 bufi=1370 size=14967
[mpeg @ 0x121ccf580] buffer underflow st=0 bufi=3411 size=14967
[mpeg @ 0x121ccf580] buffer underflow st=0 bufi=5452 size=14967
[mpeg @ 0x121ccf580] buffer underflow st=0 bufi=7493 size=14967
[mpeg @ 0x121ccf580] buffer underflow st=0 bufi=9534 size=14967
[mpeg @ 0x121ccf580] buffer underflow st=0 bufi=11575 size=14967
[mpeg @ 0x121ccf580] buffer underflow st=0 bufi=13604 size=14967
pts:392400 pts_time:4.36 dts:388800 dts_time:4.32 duration:0 duration_time:0 stream_index:0
[mpeg @ 0x121ccf580] buffer underflow st=0 bufi=669 size=2126
pts:396000 pts_time:4.4 dts:392400 dts_time:4.36 duration:0 duration_time:0 stream_index:0
[mpeg @ 0x121ccf580] buffer underflow st=0 bufi=575 size=4131
[mpeg @ 0x121ccf580] buffer underflow st=0 bufi=2616 size=4131
pts:399600 pts_time:4.44 dts:396000 dts_time:4.4 duration:0 duration_time:0 stream_index:0
[mpeg @ 0x121ccf580] buffer underflow st=0 bufi=517 size=2315
pts:403200 pts_time:4.48 dts:399600 dts_time:4.44 duration:0 duration_time:0 stream_index:0
[mpeg @ 0x121ccf580] buffer underflow st=0 bufi=234 size=2212
pts:406800 pts_time:4.52 dts:403200 dts_time:4.48 duration:0 duration_time:0 stream_index:0
[mpeg @ 0x121ccf580] buffer underflow st=0 bufi=54 size=3933
[mpeg @ 0x121ccf580] buffer underflow st=0 bufi=2095 size=3933
pts:410400 pts_time:4.56 dts:406800 dts_time:4.52 duration:0 duration_time:0 stream_index:0
[mpeg @ 0x121ccf580] buffer underflow st=0 bufi=194 size=3590
[mpeg @ 0x121ccf580] buffer underflow st=0 bufi=2235 size=3590
pts:414000 pts_time:4.6 dts:410400 dts_time:4.56 duration:0 duration_time:0 stream_index:0
[mpeg @ 0x121ccf580] buffer underflow st=0 bufi=677 size=1844
pts:417600 pts_time:4.64 dts:414000 dts_time:4.6 duration:0 duration_time:0 stream_index:0
[mpeg @ 0x121ccf580] buffer underflow st=0 bufi=865 size=3936
[mpeg @ 0x121ccf580] buffer underflow st=0 bufi=2906 size=3936
pts:421200 pts_time:4.68 dts:417600 dts_time:4.64 duration:0 duration_time:0 stream_index:0
[mpeg @ 0x121ccf580] buffer underflow st=0 bufi=1002 size=2066
pts:424800 pts_time:4.72 dts:421200 dts_time:4.68 duration:0 duration_time:0 stream_index:0
[mpeg @ 0x121ccf580] buffer underflow st=0 bufi=968 size=2427
pts:428400 pts_time:4.76 dts:424800 dts_time:4.72 duration:0 duration_time:0 stream_index:0
[mpeg @ 0x121ccf580] buffer underflow st=0 bufi=573 size=3071
[mpeg @ 0x121ccf580] buffer underflow st=0 bufi=2614 size=3071
pts:432000 pts_time:4.8 dts:428400 dts_time:4.76 duration:0 duration_time:0 stream_index:0
[mpeg @ 0x121ccf580] buffer underflow st=0 bufi=1575 size=13543
[mpeg @ 0x121ccf580] buffer underflow st=0 bufi=3616 size=13543
[mpeg @ 0x121ccf580] buffer underflow st=0 bufi=5657 size=13543
[mpeg @ 0x121ccf580] buffer underflow st=0 bufi=7698 size=13543
[mpeg @ 0x121ccf580] buffer underflow st=0 bufi=9739 size=13543
[mpeg @ 0x121ccf580] buffer underflow st=0 bufi=11780 size=13543
pts:435600 pts_time:4.84 dts:432000 dts_time:4.8 duration:0 duration_time:0 stream_index:0
[mpeg @ 0x121ccf580] buffer underflow st=0 bufi=269 size=2245
pts:439200 pts_time:4.88 dts:435600 dts_time:4.84 duration:0 duration_time:0 stream_index:0
[mpeg @ 0x121ccf580] buffer underflow st=0 bufi=56 size=2023
pts:442800 pts_time:4.92 dts:439200 dts_time:4.88 duration:0 duration_time:0 stream_index:0
[mpeg @ 0x121ccf580] buffer underflow st=0 bufi=65 size=3374
[mpeg @ 0x121ccf580] buffer underflow st=0 bufi=2106 size=3374
pts:446400 pts_time:4.96 dts:442800 dts_time:4.92 duration:0 duration_time:0 stream_index:0
[mpeg @ 0x121ccf580] buffer underflow st=0 bufi=764 size=2485
pts:450000 pts_time:5 dts:446400 dts_time:4.96 duration:0 duration_time:0 stream_index:0
[mpeg @ 0x121ccf580] buffer underflow st=0 bufi=311 size=2110
pts:453600 pts_time:5.04 dts:450000 dts_time:5 duration:0 duration_time:0 stream_index:0
[mpeg @ 0x121ccf580] buffer underflow st=0 bufi=233 size=3792
[mpeg @ 0x121ccf580] buffer underflow st=0 bufi=2274 size=3792
pts:457200 pts_time:5.08 dts:453600 dts_time:5.04 duration:0 duration_time:0 stream_index:0
[mpeg @ 0x121ccf580] buffer underflow st=0 bufi=514 size=2879
[mpeg @ 0x121ccf580] buffer underflow st=0 bufi=2555 size=2879
pts:460800 pts_time:5.12 dts:457200 dts_time:5.08 duration:0 duration_time:0 stream_index:0
[mpeg @ 0x121ccf580] buffer underflow st=0 bufi=1708 size=2613
pts:464400 pts_time:5.16 dts:460800 dts_time:5.12 duration:0 duration_time:0 stream_index:0
[mpeg @ 0x121ccf580] buffer underflow st=0 bufi=1127 size=3182
[mpeg @ 0x121ccf580] buffer underflow st=0 bufi=3168 size=3182
pts:468000 pts_time:5.2 dts:464400 dts_time:5.16 duration:0 duration_time:0 stream_index:0
[mpeg @ 0x121ccf580] buffer underflow st=0 bufi=2018 size=2493
pts:471600 pts_time:5.24 dts:468000 dts_time:5.2 duration:0 duration_time:0 stream_index:0
[mpeg @ 0x121ccf580] buffer underflow st=0 bufi=1557 size=3704
[mpeg @ 0x121ccf580] buffer underflow st=0 bufi=3598 size=3704
pts:475200 pts_time:5.28 dts:471600 dts_time:5.24 duration:0 duration_time:0 stream_index:0
[mpeg @ 0x121ccf580] buffer underflow st=0 bufi=1926 size=11553
[mpeg @ 0x121ccf580] buffer underflow st=0 bufi=3967 size=11553
[mpeg @ 0x121ccf580] buffer underflow st=0 bufi=6008 size=11553
[mpeg @ 0x121ccf580] buffer underflow st=0 bufi=8049 size=11553
[mpeg @ 0x121ccf580] buffer underflow st=0 bufi=10090 size=11553
pts:478800 pts_time:5.32 dts:475200 dts_time:5.28 duration:0 duration_time:0 stream_index:0
[mpeg @ 0x121ccf580] buffer underflow st=0 bufi=569 size=2120
pts:482400 pts_time:5.36 dts:478800 dts_time:5.32 duration:0 duration_time:0 stream_index:0
[mpeg @ 0x121ccf580] buffer underflow st=0 bufi=481 size=3127
[mpeg @ 0x121ccf580] buffer underflow st=0 bufi=2522 size=3127
pts:486000 pts_time:5.4 dts:482400 dts_time:5.36 duration:0 duration_time:0 stream_index:0
[mpeg @ 0x121ccf580] buffer underflow st=0 bufi=1427 size=3053
pts:489600 pts_time:5.44 dts:486000 dts_time:5.4 duration:0 duration_time:0 stream_index:0
[mpeg @ 0x121ccf580] buffer underflow st=0 bufi=406 size=2386
pts:493200 pts_time:5.48 dts:489600 dts_time:5.44 duration:0 duration_time:0 stream_index:0
[mpeg @ 0x121ccf580] buffer underflow st=0 bufi=52 size=2804
[mpeg @ 0x121ccf580] buffer underflow st=0 bufi=2093 size=2804
pts:496800 pts_time:5.52 dts:493200 dts_time:5.48 duration:0 duration_time:0 stream_index:0
[mpeg @ 0x121ccf580] buffer underflow st=0 bufi=1321 size=3683
[mpeg @ 0x121ccf580] buffer underflow st=0 bufi=3335 size=3683
pts:500400 pts_time:5.56 dts:496800 dts_time:5.52 duration:0 duration_time:0 stream_index:0
[mpeg @ 0x121ccf580] buffer underflow st=0 bufi=1684 size=3318
pts:504000 pts_time:5.6 dts:500400 dts_time:5.56 duration:0 duration_time:0 stream_index:0
[mpeg @ 0x121ccf580] buffer underflow st=0 bufi=398 size=2220
pts:507600 pts_time:5.64 dts:504000 dts_time:5.6 duration:0 duration_time:0 stream_index:0
[mpeg @ 0x121ccf580] buffer underflow st=0 bufi=210 size=2471
[mpeg @ 0x121ccf580] buffer underflow st=0 bufi=2251 size=2471
pts:511200 pts_time:5.68 dts:507600 dts_time:5.64 duration:0 duration_time:0 stream_index:0
[mpeg @ 0x121ccf580] buffer underflow st=0 bufi=1812 size=2041
pts:514800 pts_time:5.72 dts:511200 dts_time:5.68 duration:0 duration_time:0 stream_index:0
pts:518400 pts_time:5.76 dts:514800 dts_time:5.72 duration:0 duration_time:0 stream_index:0
[mpeg @ 0x121ccf580] buffer underflow st=0 bufi=260 size=10707
[mpeg @ 0x121ccf580] buffer underflow st=0 bufi=2301 size=10707
[mpeg @ 0x121ccf580] buffer underflow st=0 bufi=4342 size=10707
[mpeg @ 0x121ccf580] buffer underflow st=0 bufi=6383 size=10707
[mpeg @ 0x121ccf580] buffer underflow st=0 bufi=8424 size=10707
[mpeg @ 0x121ccf580] buffer underflow st=0 bufi=10465 size=10707
pts:522000 pts_time:5.8 dts:518400 dts_time:5.76 duration:0 duration_time:0 stream_index:0
[mpeg @ 0x121ccf580] buffer underflow st=0 bufi=1790 size=1992
pts:525600 pts_time:5.84 dts:522000 dts_time:5.8 duration:0 duration_time:0 stream_index:0
[mpeg @ 0x121ccf580] buffer underflow st=0 bufi=1830 size=2371
pts:529200 pts_time:5.88 dts:525600 dts_time:5.84 duration:0 duration_time:0 stream_index:0
[mpeg @ 0x121ccf580] buffer underflow st=0 bufi=1491 size=2544
pts:532800 pts_time:5.92 dts:529200 dts_time:5.88 duration:0 duration_time:0 stream_index:0
[mpeg @ 0x121ccf580] buffer underflow st=0 bufi=979 size=2163
pts:536400 pts_time:5.96 dts:532800 dts_time:5.92 duration:0 duration_time:0 stream_index:0
[mpeg @ 0x121ccf580] buffer underflow st=0 bufi=848 size=1888
pts:540000 pts_time:6 dts:536400 dts_time:5.96 duration:0 duration_time:0 stream_index:0
[mpeg @ 0x121ccf580] buffer underflow st=0 bufi=992 size=2966
pts:543600 pts_time:6.04 dts:540000 dts_time:6 duration:0 duration_time:0 stream_index:0
[mpeg @ 0x121ccf580] buffer underflow st=0 bufi=58 size=2426
[mpeg @ 0x121ccf580] buffer underflow st=0 bufi=2099 size=2426
pts:547200 pts_time:6.08 dts:543600 dts_time:6.04 duration:0 duration_time:0 stream_index:0
[mpeg @ 0x121ccf580] buffer underflow st=0 bufi=1705 size=1815
pts:550800 pts_time:6.12 dts:547200 dts_time:6.08 duration:0 duration_time:0 stream_index:0
[mpeg @ 0x121ccf580] buffer underflow st=0 bufi=1922 size=2069
pts:554400 pts_time:6.16 dts:550800 dts_time:6.12 duration:0 duration_time:0 stream_index:0
[mpeg @ 0x121ccf580] buffer underflow st=0 bufi=1885 size=3256
pts:558000 pts_time:6.2 dts:554400 dts_time:6.16 duration:0 duration_time:0 stream_index:0
[mpeg @ 0x121ccf580] buffer underflow st=0 bufi=661 size=1879
pts:561600 pts_time:6.24 dts:558000 dts_time:6.2 duration:0 duration_time:0 stream_index:0
[mpeg @ 0x121ccf580] buffer underflow st=0 bufi=814 size=9923
[mpeg @ 0x121ccf580] buffer underflow st=0 bufi=2855 size=9923
[mpeg @ 0x121ccf580] buffer underflow st=0 bufi=4896 size=9923
[mpeg @ 0x121ccf580] buffer underflow st=0 bufi=6937 size=9923
[mpeg @ 0x121ccf580] buffer underflow st=0 bufi=8978 size=9923
pts:565200 pts_time:6.28 dts:561600 dts_time:6.24 duration:0 duration_time:0 stream_index:0
[mpeg @ 0x121ccf580] buffer underflow st=0 bufi=1087 size=2287
pts:568800 pts_time:6.32 dts:565200 dts_time:6.28 duration:0 duration_time:0 stream_index:0
[mpeg @ 0x121ccf580] buffer underflow st=0 bufi=832 size=1908
pts:572400 pts_time:6.36 dts:568800 dts_time:6.32 duration:0 duration_time:0 stream_index:0
[mpeg @ 0x121ccf580] buffer underflow st=0 bufi=956 size=2386
pts:576000 pts_time:6.4 dts:572400 dts_time:6.36 duration:0 duration_time:0 stream_index:0
[mpeg @ 0x121ccf580] buffer underflow st=0 bufi=602 size=1776
pts:579600 pts_time:6.44 dts:576000 dts_time:6.4 duration:0 duration_time:0 stream_index:0
[mpeg @ 0x121ccf580] buffer underflow st=0 bufi=858 size=2011
pts:583200 pts_time:6.48 dts:579600 dts_time:6.44 duration:0 duration_time:0 stream_index:0
[mpeg @ 0x121ccf580] buffer underflow st=0 bufi=879 size=2760
pts:586800 pts_time:6.52 dts:583200 dts_time:6.48 duration:0 duration_time:0 stream_index:0
[mpeg @ 0x121ccf580] buffer underflow st=0 bufi=151 size=2478
[mpeg @ 0x121ccf580] buffer underflow st=0 bufi=2192 size=2478
pts:590400 pts_time:6.56 dts:586800 dts_time:6.52 duration:0 duration_time:0 stream_index:0
[mpeg @ 0x121ccf580] buffer underflow st=0 bufi=1746 size=1958
pts:594000 pts_time:6.6 dts:590400 dts_time:6.56 duration:0 duration_time:0 stream_index:0
pts:597600 pts_time:6.64 dts:594000 dts_time:6.6 duration:0 duration_time:0 stream_index:0
[mpeg @ 0x121ccf580] buffer underflow st=0 bufi=34 size=2195
[mpeg @ 0x121ccf580] buffer underflow st=0 bufi=2075 size=2195
pts:601200 pts_time:6.68 dts:597600 dts_time:6.64 duration:0 duration_time:0 stream_index:0
[mpeg @ 0x121ccf580] buffer underflow st=0 bufi=1912 size=2149
pts:604800 pts_time:6.72 dts:601200 dts_time:6.68 duration:0 duration_time:0 stream_index:0
[mpeg @ 0x121ccf580] buffer underflow st=0 bufi=1795 size=10396
[mpeg @ 0x121ccf580] buffer underflow st=0 bufi=3836 size=10396
[mpeg @ 0x121ccf580] buffer underflow st=0 bufi=5877 size=10396
[mpeg @ 0x121ccf580] buffer underflow st=0 bufi=7918 size=10396
[mpeg @ 0x121ccf580] buffer underflow st=0 bufi=9959 size=10396
pts:608400 pts_time:6.76 dts:604800 dts_time:6.72 duration:0 duration_time:0 stream_index:0
[mpeg @ 0x121ccf580] buffer underflow st=0 bufi=1595 size=1919
pts:612000 pts_time:6.8 dts:608400 dts_time:6.76 duration:0 duration_time:0 stream_index:0
[mpeg @ 0x121ccf580] buffer underflow st=0 bufi=1708 size=2314
pts:615600 pts_time:6.84 dts:612000 dts_time:6.8 duration:0 duration_time:0 stream_index:0
[mpeg @ 0x121ccf580] buffer underflow st=0 bufi=1426 size=2506
pts:619200 pts_time:6.88 dts:615600 dts_time:6.84 duration:0 duration_time:0 stream_index:0
[mpeg @ 0x121ccf580] buffer underflow st=0 bufi=952 size=2036
pts:622800 pts_time:6.92 dts:619200 dts_time:6.88 duration:0 duration_time:0 stream_index:0
[mpeg @ 0x121ccf580] buffer underflow st=0 bufi=948 size=1598
pts:626400 pts_time:6.96 dts:622800 dts_time:6.92 duration:0 duration_time:0 stream_index:0
[mpeg @ 0x121ccf580] buffer underflow st=0 bufi=1382 size=3112
pts:630000 pts_time:7 dts:626400 dts_time:6.96 duration:0 duration_time:0 stream_index:0
[mpeg @ 0x121ccf580] buffer underflow st=0 bufi=290 size=1414
pts:633600 pts_time:7.04 dts:630000 dts_time:7 duration:0 duration_time:0 stream_index:0
[mpeg @ 0x121ccf580] buffer underflow st=0 bufi=908 size=2626
pts:637200 pts_time:7.08 dts:633600 dts_time:7.04 duration:0 duration_time:0 stream_index:0
[mpeg @ 0x121ccf580] buffer underflow st=0 bufi=314 size=2831
[mpeg @ 0x121ccf580] buffer underflow st=0 bufi=2355 size=2831
pts:640800 pts_time:7.12 dts:637200 dts_time:7.08 duration:0 duration_time:0 stream_index:0
[mpeg @ 0x121ccf580] buffer underflow st=0 bufi=1556 size=1940
pts:644400 pts_time:7.16 dts:640800 dts_time:7.12 duration:0 duration_time:0 stream_index:0
[mpeg @ 0x121ccf580] buffer underflow st=0 bufi=1648 size=2075
pts:648000 pts_time:7.2 dts:644400 dts_time:7.16 duration:0 duration_time:0 stream_index:0
[mpeg @ 0x121ccf580] buffer underflow st=0 bufi=1605 size=10311
[mpeg @ 0x121ccf580] buffer underflow st=0 bufi=3646 size=10311
[mpeg @ 0x121ccf580] buffer underflow st=0 bufi=5687 size=10311
[mpeg @ 0x121ccf580] buffer underflow st=0 bufi=7728 size=10311
[mpeg @ 0x121ccf580] buffer underflow st=0 bufi=9769 size=10311
pts:651600 pts_time:7.24 dts:648000 dts_time:7.2 duration:0 duration_time:0 stream_index:0
[mpeg @ 0x121ccf580] buffer underflow st=0 bufi=1490 size=2600
pts:655200 pts_time:7.28 dts:651600 dts_time:7.24 duration:0 duration_time:0 stream_index:0
[mpeg @ 0x121ccf580] buffer underflow st=0 bufi=922 size=2382
pts:658800 pts_time:7.32 dts:655200 dts_time:7.28 duration:0 duration_time:0 stream_index:0
[mpeg @ 0x121ccf580] buffer underflow st=0 bufi=572 size=2576
pts:662400 pts_time:7.36 dts:658800 dts_time:7.32 duration:0 duration_time:0 stream_index:0
[mpeg @ 0x121ccf580] buffer underflow st=0 bufi=28 size=2104
[mpeg @ 0x121ccf580] buffer underflow st=0 bufi=2069 size=2104
pts:666000 pts_time:7.4 dts:662400 dts_time:7.36 duration:0 duration_time:0 stream_index:0
[mpeg @ 0x121ccf580] buffer underflow st=0 bufi=1997 size=2544
pts:669600 pts_time:7.44 dts:666000 dts_time:7.4 duration:0 duration_time:0 stream_index:0
[mpeg @ 0x121ccf580] buffer underflow st=0 bufi=1485 size=3067
pts:673200 pts_time:7.48 dts:669600 dts_time:7.44 duration:0 duration_time:0 stream_index:0
[mpeg @ 0x121ccf580] buffer underflow st=0 bufi=450 size=3071
[mpeg @ 0x121ccf580] buffer underflow st=0 bufi=2491 size=3071
pts:676800 pts_time:7.52 dts:673200 dts_time:7.48 duration:0 duration_time:0 stream_index:0
[mpeg @ 0x121ccf580] buffer underflow st=0 bufi=1452 size=2576
pts:680400 pts_time:7.56 dts:676800 dts_time:7.52 duration:0 duration_time:0 stream_index:0
[mpeg @ 0x121ccf580] buffer underflow st=0 bufi=908 size=2725
pts:684000 pts_time:7.6 dts:680400 dts_time:7.56 duration:0 duration_time:0 stream_index:0
[mpeg @ 0x121ccf580] buffer underflow st=0 bufi=215 size=2679
[mpeg @ 0x121ccf580] buffer underflow st=0 bufi=2256 size=2679
pts:687600 pts_time:7.64 dts:684000 dts_time:7.6 duration:0 duration_time:0 stream_index:0
[mpeg @ 0x121ccf580] buffer underflow st=0 bufi=1609 size=1764
pts:691200 pts_time:7.68 dts:687600 dts_time:7.64 duration:0 duration_time:0 stream_index:0
[mpeg @ 0x121ccf580] buffer underflow st=0 bufi=1877 size=10122
[mpeg @ 0x121ccf580] buffer underflow st=0 bufi=3918 size=10122
[mpeg @ 0x121ccf580] buffer underflow st=0 bufi=5959 size=10122
[mpeg @ 0x121ccf580] buffer underflow st=0 bufi=8000 size=10122
[mpeg @ 0x121ccf580] buffer underflow st=0 bufi=10041 size=10122
pts:694800 pts_time:7.72 dts:691200 dts_time:7.68 duration:0 duration_time:0 stream_index:0
pts:698400 pts_time:7.76 dts:694800 dts_time:7.72 duration:0 duration_time:0 stream_index:0
[mpeg @ 0x121ccf580] buffer underflow st=0 bufi=450 size=1911
pts:702000 pts_time:7.8 dts:698400 dts_time:7.76 duration:0 duration_time:0 stream_index:0
[mpeg @ 0x121ccf580] buffer underflow st=0 bufi=571 size=2287
pts:705600 pts_time:7.84 dts:702000 dts_time:7.8 duration:0 duration_time:0 stream_index:0
[mpeg @ 0x121ccf580] buffer underflow st=0 bufi=316 size=1741
pts:709200 pts_time:7.88 dts:705600 dts_time:7.84 duration:0 duration_time:0 stream_index:0
[mpeg @ 0x121ccf580] buffer underflow st=0 bufi=607 size=1382
pts:712800 pts_time:7.92 dts:709200 dts_time:7.88 duration:0 duration_time:0 stream_index:0
[mpeg @ 0x121ccf580] buffer underflow st=0 bufi=1257 size=2509
pts:716400 pts_time:7.96 dts:712800 dts_time:7.92 duration:0 duration_time:0 stream_index:0
[mpeg @ 0x121ccf580] buffer underflow st=0 bufi=780 size=1994
pts:720000 pts_time:8 dts:716400 dts_time:7.96 duration:0 duration_time:0 stream_index:0
[mpeg @ 0x121ccf580] buffer underflow st=0 bufi=818 size=2094
pts:723600 pts_time:8.04 dts:720000 dts_time:8 duration:0 duration_time:0 stream_index:0
[mpeg @ 0x121ccf580] buffer underflow st=0 bufi=756 size=2778
pts:727200 pts_time:8.08 dts:723600 dts_time:8.04 duration:0 duration_time:0 stream_index:0
[mpeg @ 0x121ccf580] buffer underflow st=0 bufi=10 size=1824
pts:730800 pts_time:8.12 dts:727200 dts_time:8.08 duration:0 duration_time:0 stream_index:0
[mpeg @ 0x121ccf580] buffer underflow st=0 bufi=218 size=2557
[mpeg @ 0x121ccf580] buffer underflow st=0 bufi=2259 size=2557
pts:734400 pts_time:8.16 dts:730800 dts_time:8.12 duration:0 duration_time:0 stream_index:0
[mpeg @ 0x121ccf580] buffer underflow st=0 bufi=1734 size=9992
[mpeg @ 0x121ccf580] buffer underflow st=0 bufi=3775 size=9992
[mpeg @ 0x121ccf580] buffer underflow st=0 bufi=5816 size=9992
[mpeg @ 0x121ccf580] buffer underflow st=0 bufi=7857 size=9992
[mpeg @ 0x121ccf580] buffer underflow st=0 bufi=9898 size=9992
pts:738000 pts_time:8.2 dts:734400 dts_time:8.16 duration:0 duration_time:0 stream_index:0
[mpeg @ 0x121ccf580] buffer underflow st=0 bufi=1938 size=2304
pts:741600 pts_time:8.24 dts:738000 dts_time:8.2 duration:0 duration_time:0 stream_index:0
[mpeg @ 0x121ccf580] buffer underflow st=0 bufi=1666 size=1908
pts:745200 pts_time:8.28 dts:741600 dts_time:8.24 duration:0 duration_time:0 stream_index:0
[mpeg @ 0x121ccf580] buffer underflow st=0 bufi=1790 size=2386
pts:748800 pts_time:8.32 dts:745200 dts_time:8.28 duration:0 duration_time:0 stream_index:0
[mpeg @ 0x121ccf580] buffer underflow st=0 bufi=1436 size=1786
pts:752400 pts_time:8.36 dts:748800 dts_time:8.32 duration:0 duration_time:0 stream_index:0
[mpeg @ 0x121ccf580] buffer underflow st=0 bufi=1682 size=1990
pts:756000 pts_time:8.4 dts:752400 dts_time:8.36 duration:0 duration_time:0 stream_index:0
[mpeg @ 0x121ccf580] buffer underflow st=0 bufi=1724 size=2827
pts:759600 pts_time:8.44 dts:756000 dts_time:8.4 duration:0 duration_time:0 stream_index:0
[mpeg @ 0x121ccf580] buffer underflow st=0 bufi=917 size=2484
pts:763200 pts_time:8.48 dts:759600 dts_time:8.44 duration:0 duration_time:0 stream_index:0
[mpeg @ 0x121ccf580] buffer underflow st=0 bufi=465 size=2069
pts:766800 pts_time:8.52 dts:763200 dts_time:8.48 duration:0 duration_time:0 stream_index:0
[mpeg @ 0x121ccf580] buffer underflow st=0 bufi=428 size=1997
pts:770400 pts_time:8.56 dts:766800 dts_time:8.52 duration:0 duration_time:0 stream_index:0
[mpeg @ 0x121ccf580] buffer underflow st=0 bufi=463 size=2804
[mpeg @ 0x121ccf580] buffer underflow st=0 bufi=2504 size=2804
pts:774000 pts_time:8.6 dts:770400 dts_time:8.56 duration:0 duration_time:0 stream_index:0
pts:777600 pts_time:8.64 dts:774000 dts_time:8.6 duration:0 duration_time:0 stream_index:0
[mpeg @ 0x121ccf580] buffer underflow st=0 bufi=154 size=10449
[mpeg @ 0x121ccf580] buffer underflow st=0 bufi=2195 size=10449
[mpeg @ 0x121ccf580] buffer underflow st=0 bufi=4236 size=10449
[mpeg @ 0x121ccf580] buffer underflow st=0 bufi=6277 size=10449
[mpeg @ 0x121ccf580] buffer underflow st=0 bufi=8318 size=10449
[mpeg @ 0x121ccf580] buffer underflow st=0 bufi=10359 size=10449
pts:781200 pts_time:8.68 dts:777600 dts_time:8.64 duration:0 duration_time:0 stream_index:0
pts:784800 pts_time:8.72 dts:781200 dts_time:8.68 duration:0 duration_time:0 stream_index:0
[mpeg @ 0x121ccf580] buffer underflow st=0 bufi=32 size=2320
[mpeg @ 0x121ccf580] buffer underflow st=0 bufi=2073 size=2320
pts:788400 pts_time:8.76 dts:784800 dts_time:8.72 duration:0 duration_time:0 stream_index:0
[mpeg @ 0x121ccf580] buffer underflow st=0 bufi=1785 size=2483
pts:792000 pts_time:8.8 dts:788400 dts_time:8.76 duration:0 duration_time:0 stream_index:0
[mpeg @ 0x121ccf580] buffer underflow st=0 bufi=1334 size=2054
pts:795600 pts_time:8.84 dts:792000 dts_time:8.8 duration:0 duration_time:0 stream_index:0
[mpeg @ 0x121ccf580] buffer underflow st=0 bufi=1312 size=1734
pts:799200 pts_time:8.88 dts:795600 dts_time:8.84 duration:0 duration_time:0 stream_index:0
[mpeg @ 0x121ccf580] buffer underflow st=0 bufi=1610 size=2965
pts:802800 pts_time:8.92 dts:799200 dts_time:8.88 duration:0 duration_time:0 stream_index:0
[mpeg @ 0x121ccf580] buffer underflow st=0 bufi=677 size=2266
pts:806400 pts_time:8.96 dts:802800 dts_time:8.92 duration:0 duration_time:0 stream_index:0
[mpeg @ 0x121ccf580] buffer underflow st=0 bufi=443 size=1747
pts:810000 pts_time:9 dts:806400 dts_time:8.96 duration:0 duration_time:0 stream_index:0
[mpeg @ 0x121ccf580] buffer underflow st=0 bufi=728 size=2035
pts:813600 pts_time:9.04 dts:810000 dts_time:9 duration:0 duration_time:0 stream_index:0
[mpeg @ 0x121ccf580] buffer underflow st=0 bufi=725 size=2587
pts:817200 pts_time:9.08 dts:813600 dts_time:9.04 duration:0 duration_time:0 stream_index:0
[mpeg @ 0x121ccf580] buffer underflow st=0 bufi=170 size=1894
pts:820800 pts_time:9.12 dts:817200 dts_time:9.08 duration:0 duration_time:0 stream_index:0
[mpeg @ 0x121ccf580] buffer underflow st=0 bufi=308 size=9924
[mpeg @ 0x121ccf580] buffer underflow st=0 bufi=2349 size=9924
[mpeg @ 0x121ccf580] buffer underflow st=0 bufi=4390 size=9924
[mpeg @ 0x121ccf580] buffer underflow st=0 bufi=6431 size=9924
[mpeg @ 0x121ccf580] buffer underflow st=0 bufi=8472 size=9924
pts:824400 pts_time:9.16 dts:820800 dts_time:9.12 duration:0 duration_time:0 stream_index:0
[mpeg @ 0x121ccf580] buffer underflow st=0 bufi=580 size=2303
pts:828000 pts_time:9.2 dts:824400 dts_time:9.16 duration:0 duration_time:0 stream_index:0
[mpeg @ 0x121ccf580] buffer underflow st=0 bufi=309 size=2263
pts:831600 pts_time:9.24 dts:828000 dts_time:9.2 duration:0 duration_time:0 stream_index:0
[mpeg @ 0x121ccf580] buffer underflow st=0 bufi=78 size=2569
[mpeg @ 0x121ccf580] buffer underflow st=0 bufi=2119 size=2569
pts:835200 pts_time:9.28 dts:831600 dts_time:9.24 duration:0 duration_time:0 stream_index:0
[mpeg @ 0x121ccf580] buffer underflow st=0 bufi=1582 size=2049
pts:838800 pts_time:9.32 dts:835200 dts_time:9.28 duration:0 duration_time:0 stream_index:0
[mpeg @ 0x121ccf580] buffer underflow st=0 bufi=1565 size=2533
pts:842400 pts_time:9.36 dts:838800 dts_time:9.32 duration:0 duration_time:0 stream_index:0
[mpeg @ 0x121ccf580] buffer underflow st=0 bufi=1064 size=3140
[mpeg @ 0x121ccf580] buffer underflow st=0 bufi=3105 size=3140
pts:846000 pts_time:9.4 dts:842400 dts_time:9.36 duration:0 duration_time:0 stream_index:0
[mpeg @ 0x121ccf580] buffer underflow st=0 bufi=1997 size=3154
pts:849600 pts_time:9.44 dts:846000 dts_time:9.4 duration:0 duration_time:0 stream_index:0
[mpeg @ 0x121ccf580] buffer underflow st=0 bufi=875 size=2513
pts:853200 pts_time:9.48 dts:849600 dts_time:9.44 duration:0 duration_time:0 stream_index:0
[mpeg @ 0x121ccf580] buffer underflow st=0 bufi=394 size=2868
[mpeg @ 0x121ccf580] buffer underflow st=0 bufi=2435 size=2868
pts:856800 pts_time:9.52 dts:853200 dts_time:9.48 duration:0 duration_time:0 stream_index:0
[mpeg @ 0x121ccf580] buffer underflow st=0 bufi=1599 size=2589
pts:860400 pts_time:9.56 dts:856800 dts_time:9.52 duration:0 duration_time:0 stream_index:0
[mpeg @ 0x121ccf580] buffer underflow st=0 bufi=1042 size=1700
pts:864000 pts_time:9.6 dts:860400 dts_time:9.56 duration:0 duration_time:0 stream_index:0
[mpeg @ 0x121ccf580] buffer underflow st=0 bufi=1374 size=10753
[mpeg @ 0x121ccf580] buffer underflow st=0 bufi=3415 size=10753
[mpeg @ 0x121ccf580] buffer underflow st=0 bufi=5456 size=10753
[mpeg @ 0x121ccf580] buffer underflow st=0 bufi=7497 size=10753
[mpeg @ 0x121ccf580] buffer underflow st=0 bufi=9538 size=10753
pts:867600 pts_time:9.64 dts:864000 dts_time:9.6 duration:0 duration_time:0 stream_index:0
[mpeg @ 0x121ccf580] buffer underflow st=0 bufi=817 size=2466
pts:871200 pts_time:9.68 dts:867600 dts_time:9.64 duration:0 duration_time:0 stream_index:0
[mpeg @ 0x121ccf580] buffer underflow st=0 bufi=383 size=2664
[mpeg @ 0x121ccf580] buffer underflow st=0 bufi=2424 size=2664
pts:874800 pts_time:9.72 dts:871200 dts_time:9.68 duration:0 duration_time:0 stream_index:0
[mpeg @ 0x121ccf580] buffer underflow st=0 bufi=1792 size=2452
pts:878400 pts_time:9.76 dts:874800 dts_time:9.72 duration:0 duration_time:0 stream_index:0
[mpeg @ 0x121ccf580] buffer underflow st=0 bufi=1372 size=2121
pts:882000 pts_time:9.8 dts:878400 dts_time:9.76 duration:0 duration_time:0 stream_index:0
[mpeg @ 0x121ccf580] buffer underflow st=0 bufi=1283 size=1828
pts:885600 pts_time:9.84 dts:882000 dts_time:9.8 duration:0 duration_time:0 stream_index:0
[mpeg @ 0x121ccf580] buffer underflow st=0 bufi=1475 size=2830
pts:889200 pts_time:9.88 dts:885600 dts_time:9.84 duration:0 duration_time:0 stream_index:0
[mpeg @ 0x121ccf580] buffer underflow st=0 bufi=677 size=2288
pts:892800 pts_time:9.92 dts:889200 dts_time:9.88 duration:0 duration_time:0 stream_index:0
[mpeg @ 0x121ccf580] buffer underflow st=0 bufi=421 size=1823
[mpeg @ 0x121ccf580] buffer underflow st=0 bufi=630 size=2029
pts:896400 pts_time:9.96 dts:892800 dts_time:9.92 duration:0 duration_time:0 stream_index:0
pts:900000 pts_time:10 dts:896400 dts_time:9.96 duration:0 duration_time:0 stream_index:0
